<?xml version="1.0" encoding="utf-8"?>
<!-- Generator: Adobe Illustrator 27.4.0, SVG Export Plug-In . SVG Version: 6.00 Build 0)  -->
<svg version="1.1" id="Layer_1" xmlns="http://www.w3.org/2000/svg" xmlns:xlink="http://www.w3.org/1999/xlink" x="0px" y="0px"
	 viewBox="0 0 16 16" style="enable-background:new 0 0 16 16;" xml:space="preserve">
<style type="text/css">
	.st0{fill:url(#SVGID_1_);}
	.st1{fill:url(#SVGID_00000098184111183560237840000017419959291247901630_);}
</style>
<linearGradient id="SVGID_1_" gradientUnits="userSpaceOnUse" x1="-920.9881" y1="530.4238" x2="-920.698" y2="530.0728" gradientTransform="matrix(31.8754 0 0 -28.4068 29360.6992 15067.8213)">
	<stop  offset="0" style="stop-color:#41D1FF"/>
	<stop  offset="1" style="stop-color:#BD34FE"/>
</linearGradient>
<path class="st0" d="M15.9,2.5L8.5,15.8C8.4,16,8,16,7.8,15.8L0.2,2.5C0.1,2.2,0.3,1.8,0.7,1.9l7.4,1.3c0,0,0.1,0,0.1,0l7.3-1.3
	C15.9,1.8,16.1,2.2,15.9,2.5z"/>
<linearGradient id="SVGID_00000129912821750255301340000018303796188172633772_" gradientUnits="userSpaceOnUse" x1="-886.0143" y1="529.0573" x2="-885.9798" y2="528.6266" gradientTransform="matrix(14.6164 0 0 -26.6459 12959.334 14097.5801)">
	<stop  offset="0" style="stop-color:#FFEA83"/>
	<stop  offset="8.333001e-02" style="stop-color:#FFDD35"/>
	<stop  offset="1" style="stop-color:#FFA800"/>
</linearGradient>
<path style="fill:url(#SVGID_00000129912821750255301340000018303796188172633772_);" d="M11.6,0.1L6.1,1.2C6.1,1.2,6,1.3,6,1.4
	L5.6,7.1c0,0.1,0.1,0.2,0.2,0.2c0,0,0,0,0.1,0L7.4,7c0.1,0,0.3,0.1,0.2,0.2L7.2,9.4c0,0.1,0.1,0.3,0.3,0.2l0.9-0.3
	c0.1,0,0.3,0.1,0.3,0.2l-0.7,3.5c0,0.2,0.2,0.3,0.4,0.2l0.1-0.1l4.5-8.9c0.1-0.1-0.1-0.3-0.2-0.3l-1.6,0.3c-0.1,0-0.3-0.1-0.2-0.3
	l1-3.6C11.9,0.2,11.8,0.1,11.6,0.1L11.6,0.1z"/>
</svg>
