<svg id="Component" xmlns="http://www.w3.org/2000/svg" width="40" height="40" viewBox="0 0 40 40">
    <path id="Path_3" data-name="Path 3"
          d="M19.817,3.523a60.764,60.764,0,0,1,7.927.22,10.213,10.213,0,0,1,3.743.661,7.733,7.733,0,0,1,3.743,3.743,10.213,10.213,0,0,1,.661,3.743c0,1.982.22,2.642.22,7.927a60.764,60.764,0,0,1-.22,7.927,10.213,10.213,0,0,1-.661,3.743,7.733,7.733,0,0,1-3.743,3.743,10.213,10.213,0,0,1-3.743.661c-1.982,0-2.642.22-7.927.22a60.764,60.764,0,0,1-7.927-.22,10.213,10.213,0,0,1-3.743-.661A7.733,7.733,0,0,1,4.4,31.488a10.213,10.213,0,0,1-.661-3.743c0-1.982-.22-2.642-.22-7.927a60.764,60.764,0,0,1,.22-7.927A10.213,10.213,0,0,1,4.4,8.147a7.908,7.908,0,0,1,1.541-2.2A3.723,3.723,0,0,1,8.147,4.4a10.213,10.213,0,0,1,3.743-.661,60.764,60.764,0,0,1,7.927-.22m0-3.523A65.061,65.061,0,0,0,11.67.22,13.594,13.594,0,0,0,6.826,1.1,8.62,8.62,0,0,0,3.3,3.3,8.62,8.62,0,0,0,1.1,6.826,10.033,10.033,0,0,0,.22,11.67,65.061,65.061,0,0,0,0,19.817a65.061,65.061,0,0,0,.22,8.147A13.594,13.594,0,0,0,1.1,32.809a8.62,8.62,0,0,0,2.2,3.523,8.62,8.62,0,0,0,3.523,2.2,13.594,13.594,0,0,0,4.844.881,65.061,65.061,0,0,0,8.147.22,65.061,65.061,0,0,0,8.147-.22,13.594,13.594,0,0,0,4.844-.881,9.238,9.238,0,0,0,5.725-5.725,13.594,13.594,0,0,0,.881-4.844c0-2.2.22-2.863.22-8.147a65.061,65.061,0,0,0-.22-8.147,13.594,13.594,0,0,0-.881-4.844,8.62,8.62,0,0,0-2.2-3.523,8.62,8.62,0,0,0-3.523-2.2A13.594,13.594,0,0,0,27.964.22,65.061,65.061,0,0,0,19.817,0m0,9.688A9.966,9.966,0,0,0,9.688,19.817,10.129,10.129,0,1,0,19.817,9.688m0,16.735a6.488,6.488,0,0,1-6.606-6.606,6.488,6.488,0,0,1,6.606-6.606,6.488,6.488,0,0,1,6.606,6.606,6.488,6.488,0,0,1-6.606,6.606m10.569-19.6a2.422,2.422,0,1,0,2.422,2.422,2.444,2.444,0,0,0-2.422-2.422"
          fill="#f38418" fill-rule="evenodd"/>
</svg>
