<?xml version="1.0" encoding="UTF-8"?><svg id="Component" xmlns="http://www.w3.org/2000/svg" viewBox="0 0 39.71 39.72"><defs><style>.cls-1{fill:#f38418;fill-rule:evenodd;}</style></defs><path id="Path_3" class="cls-1" d="m19.86,3.57c2.64-.1,5.29-.03,7.93.22,1.28-.02,2.55.21,3.74.66,1.65.77,2.97,2.09,3.74,3.74.45,1.2.68,2.46.66,3.74,0,1.98.22,2.64.22,7.93.1,2.64.03,5.29-.22,7.93.02,1.28-.21,2.55-.66,3.74-.77,1.65-2.09,2.97-3.74,3.74-1.2.45-2.46.68-3.74.66-1.98,0-2.64.22-7.93.22-2.64.1-5.29.03-7.93-.22-1.28.02-2.55-.21-3.74-.66-1.65-.77-2.98-2.09-3.75-3.74-.45-1.2-.68-2.46-.66-3.74,0-1.98-.22-2.64-.22-7.93-.1-2.64-.03-5.29.22-7.93-.02-1.28.21-2.55.66-3.74.38-.82.91-1.56,1.54-2.2.52-.77,1.3-1.32,2.21-1.55,1.2-.45,2.46-.68,3.74-.66,2.63-.25,5.28-.32,7.93-.22M19.86.04c-2.72-.1-5.44-.02-8.15.22-1.65,0-3.3.29-4.84.88-1.34.43-2.55,1.19-3.53,2.2-1.01.98-1.77,2.19-2.2,3.53-.69,1.52-.99,3.18-.88,4.84C.02,14.42-.06,17.14.04,19.86c-.1,2.72-.02,5.44.22,8.15,0,1.66.29,3.3.88,4.84.44,1.34,1.19,2.55,2.2,3.52.98,1.01,2.19,1.76,3.52,2.2,1.55.59,3.19.88,4.84.88,2.71.24,5.43.32,8.15.22,2.72.1,5.44.02,8.15-.22,1.65,0,3.3-.29,4.84-.88,2.69-.93,4.8-3.04,5.72-5.72.59-1.55.88-3.19.88-4.84,0-2.2.22-2.86.22-8.15.1-2.72.02-5.44-.22-8.15,0-1.65-.29-3.3-.88-4.84-.44-1.34-1.19-2.55-2.2-3.52-.98-1.01-2.19-1.76-3.52-2.2-1.55-.59-3.19-.89-4.84-.88C25.3.02,22.58-.05,19.86.04m0,9.69c-5.5-.09-10.04,4.3-10.13,9.8,0,.11,0,.22,0,.33,0,5.59,4.53,10.13,10.13,10.13s10.13-4.53,10.13-10.13-4.53-10.13-10.13-10.13m0,16.74c-3.58.07-6.54-2.79-6.61-6.37,0-.08,0-.16,0-.24-.07-3.58,2.79-6.54,6.37-6.61.08,0,.16,0,.24,0,3.58-.07,6.54,2.79,6.61,6.37,0,.08,0,.16,0,.24.07,3.58-2.79,6.54-6.37,6.61-.08,0-.16,0-.24,0M30.43,6.87c-1.34,0-2.42,1.08-2.42,2.42s1.08,2.42,2.42,2.42,2.42-1.08,2.42-2.42c-.01-1.33-1.09-2.41-2.42-2.42"/></svg>