<?xml version="1.0" encoding="UTF-8"?>
<svg id="Layer_1" xmlns="http://www.w3.org/2000/svg" viewBox="0 0 32 31.05">
    <defs>
        <style>.cls-1{fill:#f38418;}</style>
    </defs>
    <path class="cls-1"
          d="m16,15c-2.2,0-4-.7-5.4-2.1s-2.1-3.2-2.1-5.4.7-4,2.1-5.4,3.2-2.1,5.4-2.1,4,.7,5.4,2.1,2.1,3.2,2.1,5.4-.7,4-2.1,5.4-3.2,2.1-5.4,2.1ZM0,31.05v-4.7c0-1.27.32-2.35.95-3.25s1.45-1.58,2.45-2.05c2.23-1,4.38-1.75,6.43-2.25s4.11-.75,6.18-.75,4.12.26,6.15.78,4.17,1.26,6.4,2.23c1.04.47,1.88,1.15,2.51,2.05.63.89.94,1.98.94,3.24v4.7H0Zm3-3h26v-1.7c0-.53-.16-1.04-.48-1.53s-.71-.84-1.18-1.08c-2.13-1.03-4.08-1.74-5.85-2.13s-3.6-.58-5.5-.58-3.75.19-5.55.58-3.75,1.09-5.85,2.13c-.47.23-.85.59-1.15,1.08s-.45.99-.45,1.53v1.7Zm13-16.05c1.3,0,2.38-.43,3.23-1.28s1.28-1.93,1.28-3.23-.43-2.38-1.28-3.23-1.93-1.28-3.23-1.28-2.38.43-3.23,1.28-1.28,1.93-1.28,3.23.43,2.38,1.28,3.23,1.93,1.28,3.23,1.28Z"/>
    <circle class="cls-1" cx="16" cy="7.34" r="4.78"/>
    <rect class="cls-1" x="2.85" y="21.59" width="26.15" height="8.2"/>
    <rect class="cls-1" x="9.73" y="20.56" width="12.05" height="2.46"/>
</svg>