<?xml version="1.0" encoding="utf-8"?>
<!-- Generator: Adobe Illustrator 27.4.0, SVG Export Plug-In . SVG Version: 6.00 Build 0)  -->
<svg version="1.1" id="Component" xmlns="http://www.w3.org/2000/svg" xmlns:xlink="http://www.w3.org/1999/xlink" x="0px" y="0px"
	 viewBox="0 0 40 32.4" style="enable-background:new 0 0 40 32.4;" xml:space="preserve">
<style type="text/css">
	.st0{fill:none;}
	.st1{fill-rule:evenodd;clip-rule:evenodd;fill:#F38418;}
</style>
<rect id="Rectangle_393" y="-2" class="st0" width="30.7" height="38"/>
<path id="Path_2" class="st1" d="M12.7,32.4C27.8,32.4,36,20,36,9.1V8c1.6-1.2,2.9-2.6,4-4.2c-1.5,0.6-3.1,1.1-4.7,1.3
	c1.7-1,2.9-2.6,3.6-4.4c-1.6,0.9-3.3,1.6-5.1,2C32.3,1,30.1,0,27.8,0c-4.5,0.1-8.2,3.7-8.2,8.2c-0.1,0.6,0,1.2,0.2,1.8
	C13.2,9.7,7,6.5,2.9,1.3C2.2,2.6,1.8,4.1,1.8,5.6c0.1,2.7,1.4,5.3,3.6,6.9c-1.3,0-2.6-0.4-3.8-1.1l0,0c0,3.9,2.8,7.3,6.7,8
	c-0.7,0.2-1.5,0.3-2.2,0.2c-0.5,0-1.1,0-1.6-0.2c1.1,3.4,4.2,5.7,7.8,5.8C9.3,27.4,5.7,28.6,2,28.7c-0.7,0-1.4,0-2-0.2
	C3.7,31.1,8.1,32.5,12.7,32.4"/>
</svg>
